<svg xmlns="http://www.w3.org/2000/svg" width="24" height="24" viewBox="0 0 24 24">
  <path fill-rule="evenodd" d="M6.24862495,18.639126 C5.99166956,18.8958219 5.41462863,19.0703437 4.82558774,19.1697351 C4.92758729,18.5757346 5.10549955,18.0002559 5.35541149,17.7506035 C5.52601944,17.5802556 5.68827959,17.4665163 5.86436577,17.4665163 C5.99975648,17.4665163 6.14323411,17.5338207 6.30445079,17.6947774 C6.44923276,17.8395601 6.53218892,17.9997342 6.53218892,18.1346038 C6.53218892,18.3174736 6.37801569,18.5099955 6.24862495,18.639126 M3.88072234,16.2740806 C2.68151023,17.4719946 2.63455391,19.8714748 2.6371626,20.3371274 C2.64055389,20.9084322 3.10281272,21.3913022 3.67437542,21.3913022 L3.70828832,21.3913022 C4.24541638,21.3913022 6.55097145,21.3033891 7.72357498,20.1326055 C8.46365867,19.3930397 8.61913625,18.6386043 8.61913625,18.1429517 C8.61913625,17.4482554 8.32096365,16.7637331 7.77913995,16.2224283 C6.45862403,14.9034707 4.83263119,15.3229493 3.88072234,16.2740806 M18.5704837,5.43911507 C18.8861345,5.75476751 19.0661337,6.19302874 19.0661337,6.63911607 C19.0661337,7.08520339 18.8861345,7.52085593 18.5704837,7.83650836 C18.2548329,8.1521608 17.816574,8.33476964 17.370489,8.33476964 C16.924404,8.33476964 16.4887538,8.1521608 16.173103,7.83650836 C15.8574522,7.52085593 15.6748443,7.08520339 15.6748443,6.63911607 C15.6748443,6.19302874 15.8574522,5.75476751 16.173103,5.43911507 C16.4861451,5.12346264 16.924404,4.94346249 17.370489,4.94346249 C17.816574,4.94346249 18.2548329,5.12346264 18.5704837,5.43911507 M11.8291221,15.8352976 L8.15113831,12.1614685 C9.99443454,7.22398611 14.5724144,1.94815566 21.9059473,2.09085143 C22.1524679,10.8305108 14.9365867,14.6159922 11.8291221,15.8352976 M13.8925913,20.5046058 C13.9293737,19.4462571 13.6922443,18.4223432 13.205203,17.5296468 C13.9627649,17.2082552 14.6958051,16.8453854 15.3991064,16.4470372 C15.6800617,17.9449515 15.0140646,19.3849527 13.8925913,20.5046058 M3.49907185,10.114945 C4.60932782,9.0067702 6.03393025,8.34468269 7.51827153,8.60503074 C7.10949072,9.32555307 6.75444881,10.0578145 6.45158058,10.7882499 C5.56358449,10.3100756 4.54724114,10.0779015 3.49907185,10.114945 M23.9341992,1.00641575 C23.8911559,0.496937068 23.4849838,0.0936323867 22.9749861,0.0542410497 C16.3870151,-0.45836807 11.6418186,2.72998239 8.71017933,6.75702921 C7.08992559,6.2261592 5.35045499,6.41555066 3.76411416,7.30929053 C2.23620784,8.16989994 0.934735315,9.62007505 0.0996955145,11.3926852 C-0.091781903,11.7985986 -0.00204316781,12.2814686 0.322477142,12.5916427 C0.646736583,12.9018169 1.13325618,12.9699039 1.53003704,12.7604255 C3.20063838,11.8794682 5.08176053,12.0453814 6.21132077,13.1733823 L10.8109527,17.7680818 C10.8193005,17.7769514 10.8250396,17.7871253 10.8336482,17.7959949 C11.962165,18.9232132 12.1283382,20.8012147 11.2468638,22.4689553 C11.0373865,22.8657382 11.1046905,23.3522603 11.4146022,23.6767823 C11.6162535,23.8880869 11.8906871,24 12.1698163,24 C12.3198156,24 12.4713802,23.9676521 12.6135534,23.9008695 C14.3877195,23.0666079 15.8394523,21.7664329 16.7011007,20.2400838 C17.6010967,18.6456477 17.7884002,16.896255 17.2450113,15.2686884 C18.4280496,14.4195573 19.4871753,13.4624261 20.3767366,12.4241643 C23.108029,9.23633561 24.3048932,5.39502808 23.9341992,1.00641575"/>
</svg>
