<svg xmlns="http://www.w3.org/2000/svg" width="164" height="60" viewBox="0 0 164 60">
  <g fill="#07243e" fill-rule="evenodd">
    <path d="M59.32711 9.57331825L60.928691 9.57331825 60.928691 15.5711117C60.928691 15.683389 61.0294774 15.7843791 61.1413494 15.7843791L62.4854217 15.7843791C62.5973783 15.7843791 62.6981647 15.683389 62.6981647 15.5711117L62.6981647 9.57331825 64.2997457 9.57331825C64.422788 9.57331825 64.5124041 9.47232815 64.5124041 9.35971146L64.5124041 8.13569448C64.5124041 8.02350212 64.422788 7.92208769 64.2997457 7.92208769L59.32711 7.92208769C59.2038138 7.92208769 59.1142824 8.02350212 59.1142824 8.13569448L59.1142824 9.35971146C59.1142824 9.47232815 59.2038138 9.57331825 59.32711 9.57331825M70.8155554 11.9994399L70.8155554 15.5710948C70.8155554 15.683372 70.9052561 15.7843621 71.0284677 15.7843621L72.3611158 15.7843621C72.4731571 15.7843621 72.5738588 15.683372 72.5738588 15.5710948L72.5738588 11.9882376 75.0826019 8.24786987C75.1723026 8.10198586 75.0826019 7.92215559 74.9034543 7.92215559L73.44751 7.92215559C73.3468083 7.92215559 73.3018733 7.97859123 73.2682778 8.02348515L71.7115472 10.3262291 70.1548165 8.02348515C70.1213057 7.97859123 70.0652004 7.92215559 69.9756689 7.92215559L68.5197247 7.92215559C68.3405771 7.92215559 68.2508764 8.10198586 68.3405771 8.24786987L70.8155554 11.9994399zM79.5492747 15.7843366L83.7603005 15.7843366C83.8837659 15.7843366 83.9731282 15.6833465 83.9731282 15.5711542L83.9731282 14.3467129C83.9731282 14.2344356 83.8837659 14.1334455 83.7603005 14.1334455L81.0947505 14.1334455 81.0947505 8.13565205C81.0947505 8.02345969 80.9939641 7.92213013 80.8819228 7.92213013L79.5492747 7.92213013C79.4260632 7.92213013 79.3363624 8.02345969 79.3363624 8.13565205L79.3363624 15.5711542C79.3363624 15.6833465 79.4260632 15.7843366 79.5492747 15.7843366M88.6302543 15.7843366L93.26702 15.7843366C93.3899777 15.7843366 93.4799323 15.6833465 93.4799323 15.5711542L93.4799323 14.3467129C93.4799323 14.2344356 93.3899777 14.1334455 93.26702 14.1334455L90.1648982 14.1334455 90.1648982 12.6173211 92.7179839 12.6173211C92.8302791 12.6173211 92.9309808 12.5275332 92.9309808 12.4037992L92.9309808 11.1796973C92.9309808 11.0674201 92.8302791 10.9660905 92.7179839 10.9660905L90.1648982 10.9660905 90.1648982 9.57327581 93.26702 9.57327581C93.3899777 9.57327581 93.4799323 9.47237058 93.4799323 9.35975389L93.4799323 8.13565205C93.4799323 8.02345969 93.3899777 7.92213013 93.26702 7.92213013L88.6302543 7.92213013C88.5072966 7.92213013 88.417342 8.02345969 88.417342 8.13565205L88.417342 15.5711542C88.417342 15.6833465 88.5072966 15.7843366 88.6302543 15.7843366M100.096715 9.52843281L101.754485 9.52843281C102.213567 9.52843281 102.605458 9.91032815 102.605458 10.3819264 102.605458 10.8538642 102.213567 11.2805686 101.754485 11.2805686L100.096715 11.2805686 100.096715 9.52843281zM98.5513234 15.7843027L99.8841408 15.7843027C99.9960974 15.7843027 100.096715 15.6833126 100.096715 15.5711202L100.096715 12.707075 100.869495 12.707075 102.359373 15.6833126C102.381714 15.7286308 102.44882 15.7843027 102.538436 15.7843027L104.027891 15.7843027C104.217955 15.7843027 104.296739 15.6048119 104.217955 15.4585035L102.684157 12.6056605C103.658256 12.2126478 104.34142 11.3815587 104.34142 10.3486591 104.34142 9.01160113 103.243941 7.92209618 101.899953 7.92209618L98.5513234 7.92209618C98.4282811 7.92209618 98.3384111 8.02351061 98.3384111 8.1356181L98.3384111 15.5711202C98.3384111 15.6833126 98.4282811 15.7843027 98.5513234 15.7843027zM48.9226555 4.24671004C48.7718568 3.09457426 47.9824904 2.14823762 46.5546411 1.41007638 44.2643955.288492221 41.6347257-.121578501 38.665801.181391796 35.697638.484362093 32.5772376 1.26962376 29.3062923 2.53828006 26.0340776 3.80651202 23.3975534 4.78832249 20.1114605 6.77146252 16.823929 8.75426308 13.7412706 10.8961018 10.8616235 13.1945177 7.98087637 15.4937822 7.70229639 15.5317171 5.46443261 17.8827496 3.22614572 20.2350552 2.14999092 21.4494823 1.02492384 23.3969788.175221053 24.812198-.146262951 26.1368656.0608949432 27.3725941.266868111 28.6085771.647249948 29.6420707 1.20178658 30.4715474 1.75564623 31.3017878 2.33294654 31.8774314 2.93360289 32.1989873 3.53324376 32.5219859 3.85548937 32.4887185 3.89957812 32.0995248 3.96439959 30.7585629 4.56903323 29.2063706 5.7172871 27.443372 6.86410237 25.6811372 7.73597647 24.7468515 9.54403839 22.7714342 11.3512541 20.7967808 11.140542 21.0768373 13.4741994 19.036413 15.8069259 16.9976011 18.2288454 15.0329618 20.7386885 13.145041 23.2487856 11.256611 25.1264078 10.1648147 27.6566452 8.58054314 30.1860363 6.99703536 32.5514275 5.67355587 34.7541725 4.60883168 36.9554791 3.54648373 38.887768 2.81256577 40.551801 2.4090297 42.2153263 2.00668175 43.4728289 2.04538048 44.3253243 2.52699293 45.0730559 2.98399434 45.1240838 3.8737256 44.4786617 5.19686563 43.8340859 6.52042999 42.7624161 8.04207072 41.2636524 9.76059972 39.7652272 11.4798925 38.0142861 13.2888883 36.0095595 15.1865686 34.0055946 17.0850127 32.0263397 18.8599774 30.0712025 20.5104441 28.1169961 22.1616747 26.3488764 23.581901 24.770059 24.7731598 23.1899723 25.9647581 21.7213346 27.0882093 21.1522427 27.3520566 21.1398877 26.6912928 21.159605 25.9879264 21.2110559 25.2412786 21.262253 24.4960736 21.0415554 23.9149986 20.5494708 23.4979689 20.3500136 23.3517454 20.0443542 23.239553 19.6326617 23.1609675 19.2199538 23.0832306 18.7761044 23.0484356 18.3011983 23.0542065 17.8253614 23.0615898 17.3991983 23.1048713 17.024317 23.1849844 16.6479125 23.2658614 16.3962427 23.3904441 16.2699001 23.5598359 16.1150394 23.7826931 15.9900508 24.1773182 15.8943418 24.7421839 15.797702 25.3085771 15.6994543 25.9933579 15.5988372 26.79729 15.4977969 27.6012221 15.3957412 28.4655785 15.2920776 29.3870495 15.1878217 30.3108967 15.0297453 31.2456917 14.8153098 32.1920283 14.715962 32.3088034 14.4612458 32.5525375 14.053446 32.9239943 13.6442076 33.2957907 13.1929115 33.712396 12.6993036 34.1736407 12.2043418 34.63514 11.7553304 35.0866252 11.349477 35.5291994 10.9434543 35.9710099 10.7163253 36.3170071 10.6669053 36.5641358 10.4796338 37.4574314 10.524315 38.07729 10.7982407 38.420826 11.0723356 38.7654653 11.4512788 38.9453805 11.9350704 38.9600622 12.4181003 38.9755926 12.9200012 38.8803734 13.4400116 38.6738105 13.959091 38.4679264 14.3620673 38.2397228 14.6496173 37.9882659 14.6669651 38.4114059 14.6571488 40.2112362 14.715962 40.7435983 14.7750291 41.2767242 14.8630374 41.790925 14.9797329 42.2872192 15.0968516 42.784447 15.2341953 43.2409392 15.3922716 43.6568656 15.5508557 44.074744 15.7375348 44.3779689 15.9533243 44.5683225 16.0305853 44.6472475 16.2170105 44.7609675 16.5136999 44.9110948 16.8096277 45.0612221 17.1197721 45.1842772 17.4434563 45.2809392 17.7671406 45.3784498 18.0581602 45.4225799 18.3185461 45.4140085 18.5774089 45.4062857 18.709929 45.2832306 18.7158526 45.0445035 18.8900921 43.4904441 19.1009734 40.521505 19.2536338 38.7816747 19.4054481 37.0422687 19.682251 35.442976 20.0844656 33.9813352 20.4758485 33.7557624 21.1333717 33.2837397 22.0560198 32.5641641 22.9775678 31.8457765 24.448575 30.6630042 25.6778134 29.8065403 26.9059517 28.9514342 28.194511 28.0949703 29.542476 27.2375728 30.8898485 26.3805997 32.219027 25.693867 33.528573 25.1762716 34.8381189 24.659355 36.0466246 24.4133296 37.1556132 24.4364979 38.2641787 24.4605149 39.1565317 24.9216747 39.8321643 25.8196379 40.5854811 26.7965262 40.8197185 28.0746874 40.5347071 29.6525092 40.2496111 31.2317737 39.5986039 32.9463989 38.581347 34.7995248 37.5636669 36.653075 36.2585214 38.5677284 34.6671798 40.5439943 33.0749073 42.5200905 31.3360673 44.4569788 29.4510828 46.3533861 27.565252 48.2498784 25.6217082 49.9924243 23.6207051 51.5828062 21.617671 53.1725941 19.699091 54.5072758 17.8627649 55.5874455 16.0249156 56.6676153 15.0930436 57.1296238 13.5840405 57.500232 12.0748681 57.8693975 10.8774481 57.7699349 9.99271125 57.2011655 9.06287018 56.6413918 8.48303117 55.8405149 8.25590217 54.7990438 8.02699608 53.7568091 7.94939649 52.6712079 8.02259567 51.5414767 8.09587946 50.4125941 8.2527711 49.347785 8.49496305 48.34671 8.7360549 47.3476719 8.89861631 46.5777709 8.98061631 46.0380255 9.05127678 45.5966393 8.82431703 45.313867 8.29914469 45.1885205 7.7734646 45.0642772 7.17560083 45.0616464 6.50369164 45.1811372 5.8322902 45.3011372 5.19998473 45.4953098 4.60939856 45.7637397 4.01796615 46.0322546 3.69208173 46.340232 3.63242229 46.6841924 3.21573705 49.6179123 3.34419525 52.0328487 4.0166968 53.927389 4.68767513 55.8220141 5.76831496 57.2510665 7.25717771 58.2128487 8.74536347 59.1746308 10.5744966 59.648181 12.7455926 59.6350269 14.9152499 59.6215332 16.5395946 59.4377143 19.0987732 58.5595248 21.6571055 57.6805714 24.3459269 56.3581952 27.1660838 54.5940085 29.9854791 52.8289731 32.7926039 50.6527638 35.5869507 48.0641924 36.3043026 47.4362716 37.1166865 46.5866818 38.0254563 45.5154229 38.9328722 44.4449279 39.8214171 43.2591004 40.6905833 41.9587893 41.5591571 40.6593267 42.3391302 39.28357 43.0310105 37.8310948 43.7223831 36.3796379 44.2055822 34.9125658 44.4798464 33.4315757 44.753349 31.950925 44.7701891 30.5137256 44.5271509 29.1186195 44.2849589 27.7246167 43.6566308 26.4490863 42.6431818 25.2899915 41.7560755 24.3413635 40.6150993 23.6024385 39.2189837 23.0708402 37.8218526 22.5400905 36.4041581 22.3334427 34.9673387 22.4503027 35.5689259 21.8951117 36.4685564 21.0873607 37.6674151 20.0241641 38.8654275 18.9621556 40.1324925 17.7667383 41.468864 16.4373182 42.8037969 15.1095955 44.0825399 13.7214484 45.3021313 12.2749137 46.5213841 10.8299066 47.4679806 9.41859123 48.1401437 8.0408826 48.8118836 6.66470156 49.0738774 5.39960962 48.9226555 4.24671004M146.3465 33.033819C146.16236 32.8519519 146.16126 32.4840594 146.342523 31.9331117 146.522686 31.3826733 146.806597 30.7736775 147.193241 30.1074823 147.5787 29.4420509 148.022296 28.7750071 148.523435 28.1080481 149.023728 27.4418529 149.524021 26.8785149 150.025922 26.417355 150.5274 25.9578076 150.983435 25.6691796 151.39462 25.552744 151.806058 25.4374116 152.103002 25.6080764 152.288157 26.0653324 152.380058 26.2951485 152.380735 26.5012871 152.290442 26.6843423L149.426197 31.1655021C148.787206 31.7640594 148.171994 32.2825035 147.5798 32.7196464 146.98676 33.1584017 146.575575 33.2628713 146.3465 33.033819M52.8172493 33.1027298C52.5595713 32.6608345 52.6268469 32.0929137 53.019076 31.4015983 53.4102896 30.7113861 53.9077055 30.0703112 54.5125084 29.4803253 55.116465 28.8903395 55.7383618 28.4028713 56.3787911 28.0179208 57.0179511 27.6322065 57.4337901 27.5029562 57.6253773 27.6283876 57.771014 27.7567893 57.6537261 28.0746959 57.2733443 28.5812588 56.8930471 29.0876521 56.4137406 29.658628 55.8352555 30.2919802 55.2569397 30.92686 54.6755775 31.5149788 54.0912535 32.0569307 53.5072679 32.6005799 53.0825434 32.9479349 52.8172493 33.1027298M163.775097 25.8176945C163.613805 25.6807214 163.385406 25.6242857 163.088378 25.6483027 162.790504 25.6729986 162.482814 25.8223621 162.164461 26.0985997 160.888003 27.1586563 159.508389 28.3780905 158.028157 29.7588543 156.54708 31.139703 155.157565 32.4860113 153.859105 33.7975248 152.56056 35.1091231 151.467734 36.2480198 150.579613 37.2137058 149.691068 38.1801556 149.178758 38.7321216 149.042176 38.8702829 150.224279 37.0774965 151.395805 35.4572419 152.556752 34.0087553 153.71753 32.5598444 154.775575 31.2835502 155.732411 30.1797878 156.688401 29.0760255 157.461943 28.1444554 158.053968 27.3857567 158.644977 26.627058 158.96333 26.0649081 159.008096 25.6970156 159.006911 25.3766478 158.868806 25.044314 158.592934 24.7011174 158.317569 24.3583451 157.983899 24.0620792 157.595309 23.8109618 157.205196 23.5606931 156.793334 23.3664356 156.358793 23.2306506 155.923322 23.0948656 155.569596 23.0735644 155.295755 23.1660679 154.929167 23.2596747 154.406025 23.8113861 153.724131 24.8218812 153.493024 24.365389 153.182795 23.9421641 152.793613 23.5528854 152.403161 23.1652192 151.956096 22.8340736 151.452671 22.5605516 150.948063 22.2870297 150.444131 22.0719802 149.941468 21.9125177 149.437198 21.7543281 148.98057 21.6989958 148.569386 21.7457567 148.020773 21.8402122 147.312898 22.2316973 146.447117 22.9223338 145.580574 23.6133098 144.748558 24.4195332 143.95276 25.3387977 143.670457 25.6646818 143.408124 25.9993918 143.163563 26.3421641 142.93051 26.3965629 142.654808 26.5655304 142.335862 26.8499151 141.971728 27.1741018 141.383004 27.7176662 140.566304 28.4810325 139.749689 29.2447383 138.87553 29.9976662 137.945012 30.7388826 137.013732 31.4804385 136.161152 32.1068317 135.388795 32.617553 134.614915 33.1290382 134.114199 33.3162518 133.884277 33.1804668 133.654017 33.0446818 133.73077 32.6206931 134.113776 31.9061245 134.495765 31.1922348 134.934707 30.3860113 135.430938 29.4877086 135.925815 28.5894059 136.387266 27.7258133 136.81546 26.8963366 137.242046 26.0676238 137.408754 25.4702546 137.314653 25.1039745 137.218944 24.7382885 136.988261 24.4079066 136.620234 24.1123197 136.251361 23.8183451 135.837468 23.5687553 135.379487 23.3664356 134.920151 23.1636917 134.461408 23.0302829 134.004188 22.9651909 133.546376 22.9006082 133.226162 22.9149505 133.044814 23.0077935 132.815654 23.1021641 132.304952 23.5192786 131.511778 24.258628 130.717503 24.9998444 129.867631 25.8320368 128.961062 26.7563083 128.053646 27.6820226 127.192603 28.5490948 126.376327 29.3576945 125.559966 30.1678218 125.038432 30.6417115 124.81088 30.780976 124.854376 30.5980057 124.966756 30.3102263 125.146496 29.9186563 125.325474 29.5278501 125.517146 29.0899434 125.718888 28.6068034 125.920292 28.1235785 126.075745 27.6406931 126.186517 27.1583168 126.296104 26.6758557 126.304482 26.2750354 126.210804 25.9546676 126.161891 25.6347242 125.999076 25.2803253 125.721258 24.8926591 125.444201 24.5058416 125.132533 24.1870014 124.787693 23.9374965 124.442768 23.6886704 124.074742 23.5308204 123.686321 23.4654738 123.297053 23.399703 122.966853 23.5057001 122.694451 23.7834653 122.149646 24.2470014 121.663569 24.9042857 121.23656 25.7558274 121.037357 26.1529137 120.854063 26.5548373 120.68507 26.9612588 119.916859 27.6582603 119.137225 28.2950919 118.346758 28.8686987 117.509241 29.4776945 116.739592 29.9924894 116.037472 30.4157992 115.333829 30.8386846 114.721156 31.1574399 114.1992 31.3710467 113.676143 31.5854173 113.34552 31.6480481 113.207414 31.5574965 113.022259 31.4224752 113.062793 31.055686 113.32851 30.4552617 113.594312 29.8560255 113.904118 29.1859264 114.25979 28.4470014 114.6147 27.7087553 114.969611 26.9814569 115.325282 26.2645969 115.680954 25.5488402 115.87855 25.0075672 115.919423 24.6392504 115.958773 24.272546 115.885912 23.9517539 115.699487 23.6794201 115.512385 23.4070014 115.269008 23.1698868 114.968849 22.9679915 114.668775 22.7660113 114.334682 22.5880481 113.966655 22.4321499 113.598628 22.2777793 113.253619 22.1566761 112.932643 22.0688402 112.565462 22.0293777 112.157662 22.2638614 111.708312 22.7744979 111.258455 23.285983 110.81012 23.9343564 110.365086 24.7201273 109.976496 25.4046535 109.633179 26.1486704 109.333528 26.9520085 109.241881 27.020495 109.146426 27.0993352 109.046486 27.1911598 108.686921 27.5211174 108.105813 28.0732532 107.300791 28.8485856 106.495262 29.6238331 105.631935 30.3899151 104.712671 31.1442857 103.792139 31.9003536 102.949206 32.538628 102.184211 33.0608911 101.418032 33.5840028 100.919685 33.7781754 100.688155 33.6458699 100.455949 33.5135644 100.526102 33.0884724 100.898783 32.3683876 101.270702 31.6488119 101.697796 30.8363083 102.180403 29.9302829 102.662502 29.0250212 103.110837 28.1544696 103.52676 27.3195615 103.941753 26.4838897 104.099237 25.8850778 103.999635 25.5194767 103.899357 25.1554031 103.663258 24.8288402 103.291 24.5386846 102.91798 24.2492928 102.500533 24.0063225 102.03959 23.8105375 101.576954 23.6148373 101.116349 23.4879632 100.658791 23.4298303 100.199794 23.371867 99.8794949 23.3912164 99.699755 23.4863508 99.4722029 23.5842008 98.967594 24.0086139 98.1852514 24.7600141 97.401724 25.5128571 96.5638685 26.3574399 95.6711771 27.2952051 94.7773856 28.233819 93.9292906 29.1135361 93.125369 29.9341867 92.3206012 30.7558557 91.8055837 31.2371287 91.5807395 31.3803819 91.6216972 31.1962235 91.7296766 30.9070863 91.9036621 30.5129703 92.0768014 30.1194484 92.2620419 29.678826 92.4565063 29.1928854 92.6508861 28.7066054 92.7990615 28.221768 92.9032328 27.7374399 93.0053732 27.2538755 93.0080811 26.8522065 92.9093257 26.5334512 92.8560976 26.214611 92.6882896 25.8625884 92.4051399 25.478826 92.1216518 25.0965912 91.8060068 24.7824187 91.4572741 24.5374965 91.1085414 24.2941867 90.7382297 24.1413437 90.3489624 24.0821924 89.9585104 24.0221924 89.6298334 24.1328571 89.3617467 24.4141018 88.8239655 24.8861245 88.3475362 25.5503678 87.9333051 26.4081047 87.7662586 26.753338 87.6113133 27.1019661 87.4670305 27.4537341 87.3804609 27.5215417 87.2905909 27.5991938 87.1967437 27.6883027 86.8430182 28.024116 86.271303 28.5862659 85.4792287 29.3747525 84.6868159 30.163918 83.8366054 30.9442574 82.9300357 31.7141584 82.0223659 32.4852475 81.1904341 33.1382885 80.43424 33.672942 79.6770305 34.2092079 79.1821534 34.4114427 78.9485084 34.2835502 78.7136786 34.1550636 78.7771461 33.7286987 79.1374722 33.0020792 79.4966136 32.2770721 79.9104217 31.4569307 80.3779655 30.5430976 80.8445785 29.6296888 81.2781884 28.7518388 81.6798954 27.9099717 82.080756 27.0677652 82.2280006 26.4657284 82.1224753 26.1025035 82.0157653 25.7395332 81.7745889 25.416959 81.3974227 25.133338 81.0194949 24.8504809 80.59824 24.6144696 80.1337426 24.4264922 79.6684836 24.2388543 79.2058479 24.119703 78.7466817 24.0693777 78.2870078 24.0187129 77.9673856 24.0434936 77.7888303 24.1421075 77.5633092 24.2438614 77.065724 24.676761 76.2964134 25.4413154 75.5256642 26.2068883 74.7020254 27.0658133 73.8251585 28.0182603 72.9473608 28.9724045 72.1142442 29.8657001 71.323947 30.7001839 70.5337344 31.5350071 70.0263329 32.0256153 69.8040275 32.1718388 69.8415156 31.9876803 69.9445868 31.696761 70.1123102 31.2990806 70.2788489 30.9029279 70.4561348 30.459505 70.6428138 29.9700849 70.8289851 29.4807496 70.9694599 28.9932815 71.0649996 28.5076803 71.15927 28.0221641 71.1550388 27.6214286 71.0510367 27.3033522 70.9923928 26.9853607 70.8183226 26.6363932 70.5289108 26.2579774 70.2394144 25.8796464 69.9182689 25.5709052 69.5653897 25.3325177 69.2128489 25.0950636 68.8401678 24.9487553 68.4497158 24.8953748 68.0583329 24.8424187 67.7316023 24.9588543 67.4685084 25.2443423 66.9384279 25.7252758 66.4729996 26.3980905 66.0731544 27.2623621 65.8582958 27.7264074 65.664593 28.1960537 65.4902689 28.6712164 63.2507127 30.5800141 61.0978107 32.0412306 59.0332555 33.0524894 56.8773071 34.1089816 55.2891812 34.5311033 54.2687086 34.3197878 55.3147375 33.4729986 56.2251998 32.6570156 57.0002648 31.8724328 57.6891833 31.1852758 58.30998 30.4912447 58.861724 29.7894908 59.4120295 29.0891796 59.7175197 28.4841726 59.7776869 27.974215 59.7907189 27.4681612 59.6568448 26.9822207 59.3764877 26.5180057 59.0946074 26.0533663 58.7256497 25.6524611 58.2693608 25.3132532 57.8118871 24.9751485 57.3140481 24.7081612 56.7755053 24.5123762 56.2358623 24.3170156 55.7613794 24.2323197 55.3504485 24.2582037 54.8480398 24.2902829 54.2546611 24.4999859 53.5695507 24.8884158 52.8831709 25.2765064 52.2167622 25.7786563 51.5685476 26.3937624 50.9204175 27.0101414 50.3461637 27.7118953 49.8465476 28.5019095 49.3464237 29.2918388 49.0542194 30.1028147 48.9693422 30.9353465 48.8515465 31.9539887 49.118787 32.9247666 49.7719098 33.8478501 50.4252865 34.7710184 51.2210842 35.5713861 52.1571874 36.2464922 53.0932906 36.9219378 54.0526652 37.4241726 55.0353112 37.7514993 56.0182111 38.0799293 56.8030925 38.1801556 57.3907168 38.0500566 58.2483742 37.8574965 59.1596828 37.4094908 60.1232885 36.7045969 61.0862173 36.0003819 61.9980336 35.2068883 62.8594991 34.3253041 63.4449232 33.7251344 63.9914206 33.1058699 64.5005146 32.4679349 64.4994144 32.4747242 64.4981451 32.4815983 64.497045 32.4883027 64.3695176 33.2969873 64.3352452 33.8605799 64.3929583 34.1789958 64.5611049 34.9528006 64.9730512 35.5214851 65.6277818 35.8843706 66.2825971 36.2488685 66.9072019 36.4182603 67.5012576 36.3943281 67.8666611 36.3796464 68.4580089 36.0120934 69.2764857 35.2909901 70.0937777 34.569802 70.9084464 33.7797878 71.7212535 32.9208628 72.5333835 32.0627864 73.5732349 30.8966478 74.8422462 29.423041 74.8441926 29.4690382 74.7277509 29.7267751 74.4952906 30.1941301 74.2620687 30.6629279 74.0199614 31.1767893 73.7674454 31.7378359 73.5156064 32.2983734 73.2975321 32.858232 73.1137302 33.4161386 72.9301822 33.9739604 72.8646838 34.3445686 72.9179965 34.5248232 72.9830718 35.0278218 73.2884774 35.508331 73.8331977 35.9683876 74.3773257 36.4283593 75.0439882 36.7920085 75.8331007 37.058232 76.6212824 37.3258982 77.440013 37.4991938 78.2904774 37.5793918 79.1400109 37.6601839 79.9022978 37.5486704 80.5766611 37.247058 81.0271957 37.0907355 81.6502772 36.6302546 82.4436208 35.863918 83.2363721 35.0981754 84.0607725 34.250198 84.9160605 33.3209194 85.3753959 32.8216549 85.8115445 32.3372419 86.2261141 31.8663225 86.1198272 32.5348091 86.0900398 33.011669 86.1366673 33.2953748 86.2916972 34.0721499 86.6940811 34.6479632 87.3425496 35.0216266 87.9914413 35.3969024 88.6125765 35.5772419 89.2073938 35.5633239 89.5731358 35.5547525 90.1703226 35.1968741 91.000562 34.4892645 91.8298706 33.7824187 92.6578252 33.0064074 93.4849335 32.1618246 94.3112803 31.3169024 95.370595 30.1690099 96.6644857 28.7170438 96.6653319 28.7631259 96.5449129 29.0187412 96.3050058 29.4818529 96.0634908 29.9464922 95.8126673 30.4564498 95.5511812 31.012744 95.2895259 31.5694625 95.0623969 32.1250778 94.8691172 32.6798444 94.6761761 33.2349505 94.6045001 33.604116 94.6545971 33.7858982 94.7112947 34.2896605 95.0087457 34.7748373 95.5457653 35.2444837 96.0820233 35.7133663 96.7424237 36.0878784 97.5271358 36.3680198 98.31024 36.6488402 99.125755 36.8361386 99.9752039 36.9300849 100.823214 37.0257284 101.587024 36.927454 102.266719 36.6360255 102.719708 36.4883593 103.350405 36.0383168 104.156358 35.2854738 104.962226 34.5333946 105.800504 33.6992504 106.671194 32.7846535 107.360197 32.0610042 107.998764 31.3677369 108.588927 30.7038331 108.642071 31.2179491 108.80074 31.6948091 109.065695 32.1335644 109.463425 32.7932249 109.974973 33.3479915 110.599154 33.796761 111.222998 34.2467185 111.867658 34.5813437 112.533897 34.800297 113.199714 35.0208628 113.783699 35.1032673 114.286785 35.0498868 114.650919 34.9534795 115.172537 34.6587412 115.851555 34.1673692 116.530488 33.6759972 117.26468 33.0926308 118.055062 32.4156577 118.526075 32.0128854 118.992603 31.5911881 119.455493 31.1551485 119.33482 31.8393352 119.296486 32.3266337 119.339728 32.6160255 119.483249 33.3947525 119.877086 33.9762518 120.520224 34.3596747 121.163276 34.7442008 121.782465 34.9334512 122.376944 34.9287836 122.742263 34.9256436 123.344865 34.576761 124.185429 33.8814569 125.025315 33.1870863 125.864356 32.4229562 126.704242 31.5903395 127.542098 30.758232 128.618422 29.6258699 129.933214 28.1931683 129.933553 28.238826 129.809326 28.4925743 129.562479 28.9522065 129.314364 29.4133663 129.055924 29.9198444 128.786653 30.4723197 128.516958 31.0251344 128.281198 31.5772702 128.080217 32.1293211 127.879237 32.6810325 127.80206 33.0493494 127.849196 33.2319802 127.898616 33.7363366 128.189043 34.226181 128.719039 34.7028713 129.248019 35.1802405 129.903173 35.5647666 130.683485 35.8557709 131.463204 36.1478784 132.275588 36.3474823 133.123514 36.4539038 133.969916 36.561768 134.735334 36.4747808 135.418921 36.1938755 135.87411 36.0522348 136.511408 35.6120368 137.327769 34.8708204 138.144808 34.1310467 138.995018 33.3092928 139.879247 32.4075106 140.459425 31.8159972 141.004314 31.2451061 141.515778 30.6935644 141.533464 30.8637199 141.564098 31.0304809 141.607594 31.1938472 141.747222 31.8809194 142.013024 32.476761 142.40263 32.9792504 142.793505 33.4825884 143.251317 33.8818812 143.77869 34.178232 144.304962 34.4746676 144.865761 34.6788543 145.461086 34.7907072 146.055142 34.9040028 146.62728 34.9132532 147.175893 34.8188826 145.53894 37.3931966 143.970785 39.9434936 142.470921 42.4706223 140.971057 44.9974116 139.597282 47.295488 138.346211 49.3633239 137.097086 51.431669 136.028378 53.200099 135.141949 54.6713296 134.255774 56.1415417 133.653679 57.0839745 133.334987 57.4979491 132.92558 58.1408911 132.848065 58.6345545 133.09965 58.9773267 133.353012 59.320099 133.753873 59.5704526 134.302909 59.7294059 134.852199 59.8881047 135.459033 59.9546393 136.121041 59.9290948 136.784572 59.9035502 137.32083 59.7983168 137.731592 59.6141584 138.142523 59.4288119 138.609644 58.7506506 139.1305 57.5799293 139.652457 56.4088685 140.344845 54.9499434 141.20631 53.2051061 142.069383 51.4586563 143.158401 49.5180339 144.477679 47.381372 145.795602 45.2442857 147.47986 43.0718953 149.529437 40.8631825 151.260069 39.0235502 152.922325 37.3204668 154.517982 35.7551202 156.112032 34.1913861 157.546989 32.8210608 158.823617 31.6471994 160.098975 30.4735078 161.147966 29.5302263 161.968389 28.816082 162.788727 28.1026167 163.289866 27.6314427 163.472314 27.4008628 163.79016 27.0333098 163.960252 26.7114144 163.983016 26.4359406 164.00468 26.1608911 163.935289 25.9546676 163.775097 25.8176945M115.946401 19.4109335C116.292849 19.636082 116.672469 19.8132815 117.086023 19.9449081 117.499577 20.0763649 117.843656 20.1401839 118.117581 20.1359406 118.391507 20.0872277 118.731693 19.8984017 119.138392 19.5711598 119.545346 19.2445969 119.927674 18.8716973 120.288339 18.453819 120.64748 18.0356011 120.96194 17.6072843 121.230112 17.1674257 121.49786 16.728331 121.629703 16.3707921 121.62581 16.0954031 121.66753 15.8659264 121.56065 15.5804385 121.304834 15.2403819 121.047918 14.899901 120.712302 14.5846252 120.296886 14.2917539 119.880962 13.9999859 119.442444 13.7778925 118.984039 13.6231825 118.523773 13.47 118.134252 13.4181471 117.815137 13.4680481 117.496446 13.5651344 117.168192 13.7763649 116.829783 14.1017397 116.491883 14.4278784 116.188677 14.8108769 115.920929 15.2496322 115.652419 15.6899151 115.419113 16.1402122 115.219994 16.6014569 115.02096 17.0633805 114.900202 17.4316973 114.858568 17.7070863 114.817187 18.0289816 114.902487 18.3377228 115.112438 18.6321216 115.322304 18.928133 115.600376 19.1873126 115.946401 19.4109335"/>
    <polygon points="50.224 51.993 121.816 51.993 121.816 47.75 50.224 47.75"/>
  </g>
</svg>
